<svg xmlns="http://www.w3.org/2000/svg" width="134" height="134" viewBox="0 0 127 134"><path d="M44 4.325c-2.475.693-6.643 2.336-9.263 3.651s-6.734 4.28-9.143 6.588c-2.409 2.309-6.011 6.614-8.004 9.567-1.994 2.953-4.958 8.819-6.588 13.036S7.355 48.755 6.52 53.548 5 65.128 5 68.631 5.243 75 5.54 75s1.867-.981 3.488-2.179 3.22-1.907 3.552-1.574c.333.333-.153 3.212-1.079 6.399-.927 3.186-2.546 7.482-3.599 9.546s-3.265 5.291-4.915 7.17C.484 97.213.25 97.882 1.575 98.39c.874.336 3.489.61 5.811.61 2.921 0 5.593-.872 8.668-2.829 2.445-1.556 5.022-3.531 5.726-4.389 1.058-1.288.84-2.871-1.25-9.097-1.391-4.146-2.518-8.133-2.503-8.861s1.291 1.637 2.835 5.256 4.183 8.579 5.865 11.023c1.681 2.443 5.065 6.294 7.52 8.557 2.456 2.264 5.429 4.632 6.609 5.263s2.144.92 2.144.642-1.313-3.106-2.917-6.285-3.681-8.436-4.615-11.682c-1.224-4.253-1.577-8.303-1.265-14.5.266-5.297 1.067-9.805 2.085-11.742.91-1.729 3.124-4.614 4.92-6.411 3.063-3.062 3.31-3.834 3.949-12.356.376-4.999 1.161-10.214 1.747-11.589.937-2.203.994-2.061.479 1.196-.322 2.032-.068 7.584.565 12.337.632 4.752 2.058 10.946 3.169 13.765 1.111 2.818 3.3 6.865 4.865 8.992s4.322 4.959 6.126 6.29S65.751 75 66.194 75 67 72.049 67 68.443s.475-8.444 1.056-10.75 1.91-5.318 2.953-6.693l1.896-2.5 5.583 5.5c3.07 3.025 6.691 7.726 8.047 10.446C88.091 67.569 89 71.105 89 74.036c0 2.554-.871 8.048-1.935 12.208s-3.096 9.857-4.516 12.66c-1.421 2.803-2.202 5.096-1.737 5.096s2.9-1.361 5.412-3.025 6.188-5.379 8.17-8.256c1.981-2.877 5.213-8.828 7.182-13.225 3.327-7.431 3.536-7.684 2.966-3.597-.337 2.418-1.537 6.544-2.666 9.17-1.129 2.625-1.898 5.581-1.708 6.568s1.805 2.778 3.589 3.98c1.783 1.202 5.505 2.728 8.27 3.391 2.765.664 6.589.913 8.499.555l3.471-.651-5.401-5.274c-3.55-3.466-5.776-6.621-6.493-9.205-.601-2.162-1.094-6.069-1.097-8.681s.434-4.75.971-4.75 1.714 1.125 2.615 2.5 2.036 2.5 2.523 2.5.885-1.946.885-4.324-.719-8.565-1.598-13.75c-.879-5.184-3.054-13.33-4.833-18.102s-4.773-11.23-6.652-14.351-6.199-8.285-9.6-11.477c-4.067-3.816-8.174-6.575-12-8.06C78.428 4.039 75.186 3.63 63 3.372c-9.52-.202-16.046.126-19 .953M71.031 57.25c-.64 1.788-1.426 7.412-1.745 12.5S68.313 79 67.833 79s-2.622-1.104-4.76-2.454-5.447-4.059-7.352-6.022c-1.906-1.962-4.919-6.294-6.694-9.625l-3.229-6.058-2.389 2.244c-1.314 1.235-3.338 4.758-4.498 7.83-1.621 4.291-2.005 7.09-1.66 12.085.268 3.882 1.311 8.188 2.59 10.692 1.177 2.306 3.607 5.288 5.4 6.626 1.792 1.339 5.018 2.999 7.168 3.688s6.346 1.232 9.324 1.206c3.754-.034 7.078-.863 10.842-2.705 4.076-1.994 6.085-3.776 8.065-7.156 1.905-3.25 2.773-6.387 3.124-11.292.339-4.737-.008-8.278-1.147-11.707-.898-2.703-3.012-6.589-4.698-8.634C76.234 55.673 74.256 54 73.525 54s-1.853 1.462-2.494 3.25M16.5 99.126c-2.75 2.23-5.129 4.6-5.286 5.268s1.569 2.704 3.835 4.525c2.281 1.833 4.493 2.925 4.955 2.446.459-.476 1.321-3.535 1.915-6.799.595-3.263 1.081-6.751 1.081-7.75s-.337-1.8-.75-1.78c-.413.019-3 1.86-5.75 4.09m76.808.386c-2.833 2.478-6.785 6.732-8.783 9.454-1.999 2.723-5.155 8.448-7.014 12.724s-3.202 7.952-2.985 8.17 2.776-.377 5.685-1.322 6.696-2.783 8.416-4.084c1.719-1.302 3.407-2.087 3.75-1.744s.623 1.673.623 2.957.418 2.333.928 2.333c.511 0 1.897-2.588 3.081-5.75 1.284-3.432 2.361-9.177 2.67-14.25.284-4.675.126-9.511-.352-10.747-.849-2.195-.987-2.143-6.019 2.259m-68.673.367c-.352 2.202.03 6.254.906 9.618.833 3.198 2.867 7.656 4.52 9.908 1.654 2.252 5.511 5.783 8.573 7.845 3.062 2.063 6.443 3.75 7.512 3.75 1.702 0 1.859-.468 1.262-3.75-.375-2.062-1.512-5.884-2.527-8.491-1.015-2.608-2.924-6.433-4.243-8.5s-4.14-5.49-6.268-7.605-5.053-4.461-6.498-5.212c-2.586-1.346-2.638-1.307-3.237 2.437" fill="#fff" fill-rule="evenodd"/></svg>