<svg xmlns="http://www.w3.org/2000/svg" width="64" height="64" viewBox="0 0 64 64" version="1.1"><path d="M 31.593 6.107 C 31.344 6.873, 30.356 11.100, 29.399 15.500 C 27.231 25.469, 27.342 25.363, 16.707 27.535 C 5.211 29.883, 5.234 30.283, 17.016 32.955 C 28.276 35.508, 27.539 34.622, 30.178 48.750 C 31.949 58.232, 32.574 57.607, 35.540 43.382 L 37.232 35.264 47.109 33.024 C 58.738 30.388, 58.791 29.898, 47.699 27.571 C 36.799 25.283, 37.429 25.907, 35.001 15.006 C 32.783 5.048, 32.327 3.856, 31.593 6.107 M 34.552 5.915 C 34.313 6.303, 34.587 8.476, 35.163 10.744 C 36.410 15.658, 38.672 16.992, 39.970 13.578 C 40.469 12.267, 41.354 10.899, 41.938 10.538 C 44.174 9.156, 42.840 7.203, 38.994 6.226 C 36.791 5.667, 34.792 5.527, 34.552 5.915 M 21.500 7.867 C 13.834 11.362, 9.080 17.039, 6.525 25.750 C 5.254 30.083, 10.670 28.657, 15.251 23.453 C 17.452 20.952, 21.385 17.825, 23.991 16.504 C 28.485 14.227, 30 11.800, 30 6.875 C 30 5.430, 25.760 5.925, 21.500 7.867 M 43 11 C 40.022 13.978, 40.333 19.330, 43.635 21.927 C 50.957 27.687, 59.687 18.957, 53.927 11.635 C 51.330 8.333, 45.978 8.022, 43 11 M 53.106 23.885 C 50.187 26.130, 51.075 28, 55.059 28 C 58.031 28, 58.644 26.841, 57.393 23.582 C 56.624 21.577, 56.055 21.618, 53.106 23.885 M 6.010 34.680 C 6.021 37.811, 10.136 47.348, 11.964 48.478 C 13.815 49.622, 14.273 48.378, 12.925 45.860 C 12.245 44.589, 11.421 41.063, 11.094 38.025 C 10.405 31.615, 5.989 28.710, 6.010 34.680 M 54 34.841 C 54 36.404, 53.330 39.891, 52.511 42.591 C 50.486 49.267, 50.653 49.967, 53.498 46.734 C 56.017 43.871, 59.377 34.419, 58.424 32.877 C 57.060 30.670, 54 32.029, 54 34.841 M 16.521 40.621 C 13.427 43.716, 17.080 48.699, 20.750 46.388 C 23.815 44.458, 22.522 39, 19 39 C 18.529 39, 17.413 39.730, 16.521 40.621 M 4.550 50.870 C 15.378 60.785, 32.824 63.569, 46.088 57.500 C 52.700 54.475, 58.534 52, 59.054 52 C 59.574 52, 60 51.550, 60 51 C 60 47.409, 40.552 50.698, 35.487 55.146 C 32.028 58.182, 32.028 58.182, 29.130 55.284 C 27.536 53.690, 24.440 51.849, 22.250 51.193 C 17.659 49.818, 3.111 49.552, 4.550 50.870" stroke="none" fill="#fffcfc" fill-rule="evenodd"/><path d="" stroke="none" fill="#fcfcfc" fill-rule="evenodd"/></svg>