<svg xmlns="http://www.w3.org/2000/svg" width="145" height="145" viewBox="0 0 133 145"><path d="M23.161 6.596c-2.47 8.758-9.88 15.733-18.345 17.269-4.316.783-4.316.783-.144 1.534 8.779 1.58 15.224 7.433 18.349 16.664 1.631 4.818 1.631 4.818 2.932-.258 1.773-6.917 8.725-14.192 15.224-15.93 4.662-1.247 4.662-1.247-.895-3.505-8.372-3.403-13.547-9.111-15.291-16.87-.675-3-.675-3-1.83 1.096M40.962 5.25c-9.727 4.905-6.285 11.071 6.056 10.846 18.933-.344 16.589 5.766-10.215 26.623-46.061 35.842-46.565 76.923-1.087 88.707 8.596 2.228 8.569 2.264 3.695-5.004-2.426-3.618-4.411-6.95-4.411-7.405 0-.454-2.44-2.203-5.422-3.886C17.287 108.194 12.18 94.479 17.056 81.5c2.845-7.572 11.046-15.941 29.895-30.507C67.298 35.269 71.956 29.682 71.956 21c0-14.144-17.024-22.795-30.994-15.75m50.869 34.129c-6.256 2.573-15.337 8.829-16.809 11.58-1.6 2.989 14.429 3.557 20.173.714 12.923-6.393 22.545-.349 23.589 14.819.325 4.713 1.3 8.636 2.978 11.979 1.373 2.734 3.067 6.559 3.764 8.5 1.626 4.521 3.556.694 5.473-10.849 4.706-28.341-14.893-46.727-39.168-36.743M63.973 59.212c-35.657 12.511-38.898 60.866-5.196 77.522 26.774 13.233 58.924-5.024 60.952-34.613 2.067-30.151-27.427-52.848-55.756-42.909m22.616 19.865c-3.622 4.304-3.497 9.169.334 13 5.279 5.279 13.803 3.314 16.123-3.718 3.268-9.901-9.755-17.247-16.457-9.282" fill="#fff" fill-rule="evenodd"/></svg>