<svg width="512" height="512" xmlns="http://www.w3.org/2000/svg" xmlns:xlink="http://www.w3.org/1999/xlink"><g stroke="null"><symbol stroke="null" id="a" viewBox="0 0 24 24" fill="none"><path d="M9.453 8.825c.693.688 1.916 1.658 2.547 2.187.63-.53 1.854-1.5 2.547-2.187.688-.684 1.143-1.38 1.29-2.117h-.66c-.393.488-1.67.846-3.184.846s-2.79-.358-3.184-.846h-.646c.147.736.602 1.433 1.29 2.117zM8.112 6.214q-.005-.43.137-.882C8.65 4.062 10.176 3.25 12 3.25s3.35.811 3.751 2.082q.142.451.137.882h-.624c-.242-.56-1.614-.988-3.27-.988-1.658 0-3.03.428-3.271.988z" fill="var(--gti-color, #fff)"/><path d="m12 12.212-2.297-1.969c-.04-.035-.102-.011-.116.041-.137.544-.632 1.33-1.748 1.645 0 .508.18 1.218.348 1.618.113.267.22.522.266.782.205 1.164.205 2.01 0 2.575L12 18.88l3.547-1.976c-.205-.564-.205-1.411 0-2.575.046-.26.153-.515.266-.782.168-.4.348-1.11.348-1.618-1.116-.315-1.611-1.101-1.749-1.645-.013-.053-.075-.076-.115-.041z" fill="var(--gti-color, #fff)"/><path d="M8.112 18.95 12 20.75l3.888-1.8v-1.199l-.41-.141L12 19.41l-3.479-1.8-.41.141zM2.76 9.988a.067.067 0 0 0-.097-.002l-.643.66a.07.07 0 0 0-.001.099l2.156 2.332c.027.028.07.029.098.001l1.89-1.956a.074.074 0 0 0-.01-.11c-.43-.322-.46-.62-.463-1.173 0-.056-.06-.09-.106-.058l-1.79 1.247a.066.066 0 0 1-.088-.01z" fill="var(--gti-color, #fff)"/><path d="M7.882 7.515c-.182-.257-.432-.834-.555-1.372a7 7 0 0 1-.134-1.224c-.002-.053-.057-.087-.102-.061-1.01.57-3.199 2.047-4.444 4.1a.07.07 0 0 0 .006.082l1.178 1.416a.068.068 0 0 0 .104.001c.69-.785 2.484-2.097 2.949-2.338.367-.19.794-.4.973-.488.042-.02.052-.078.025-.116z" fill="var(--gti-color, #fff)"/><path d="M7.668 11.47c.867 0 1.57-.726 1.57-1.622s-.703-1.623-1.57-1.623c-.866 0-1.568.726-1.568 1.623 0 .896.702 1.623 1.568 1.623zm13.669-1.484a.067.067 0 0 0-.097.002l-.946 1.03a.07.07 0 0 1-.088.01l-1.79-1.247c-.045-.032-.106.002-.106.058-.003.554-.034.851-.464 1.173a.074.074 0 0 0-.01.11l1.891 1.956a.067.067 0 0 0 .098-.001l2.156-2.332a.07.07 0 0 0-.001-.1z" fill="var(--gti-color, #fff)"/><path d="M16.673 6.143c-.123.538-.373 1.115-.555 1.372-.027.038-.016.096.025.116.179.087.606.298.973.488.465.24 2.258 1.553 2.95 2.338a.068.068 0 0 0 .103 0l1.178-1.417a.07.07 0 0 0 .006-.083c-1.245-2.052-3.433-3.529-4.444-4.1-.046-.025-.1.01-.102.062a7 7 0 0 1-.134 1.224z" fill="var(--gti-color, #fff)"/><path d="M14.763 9.848c0 .896.702 1.623 1.569 1.623.866 0 1.569-.727 1.569-1.623 0-.897-.703-1.623-1.57-1.623-.866 0-1.568.726-1.568 1.623z" fill="var(--gti-color, #fff)"/></symbol><use transform="matrix(1.17577 0 0 1.20089 -1.17 -6.094)" x="-37.281" y="-37.751" xlink:href="#a" data-iko-uid="hsr-game-content-body"/></g></svg>