<svg xmlns="http://www.w3.org/2000/svg" width="78" height="78" viewBox="0 0 78 67"><path d="M30.129 15.451C25.658 23.477 22 30.26 22 30.524s1.812 2.118 4.026 4.119c2.215 2.001 3.866 3.798 3.67 3.994s-2.727-.348-5.625-1.208c-2.897-.861-5.368-1.422-5.491-1.247s-4.152 6.781-8.956 14.68-8.597 14.424-8.429 14.5 8.044-.004 17.504-.177l17.198-.315.64-4.27c.352-2.348 1.051-4.906 1.552-5.685L39 53.5l.911 1.415c.501.779 1.198 3.329 1.549 5.667l.638 4.251 17.201.351c9.46.193 17.342.278 17.513.188s-3.615-6.623-8.415-14.518-8.834-14.497-8.964-14.672c-.129-.175-2.612.388-5.516 1.25S48.175 39 47.61 39c-.564 0 .859-1.921 3.162-4.268l4.189-4.268-7.549-13.982c-4.151-7.69-7.91-14.351-8.351-14.803l-.803-.821zm3.83 5.633-4.402 8.98 4.472 3.855 4.471 3.855 2.5-1.779c1.375-.979 3.358-2.729 4.407-3.889l1.907-2.111-3.799-8.526c-2.09-4.69-4.104-8.715-4.477-8.946s-2.659 3.622-5.079 8.561m1.81 3.315-2.637 5.376 2.248 2.113C36.617 33.049 38.084 34 38.64 34s2.043-1.098 3.303-2.439l2.292-2.44-2.915-5.049-2.915-5.049zm.922 20.655 1.804 3.053 1.752-2.164C41.211 44.752 42 43.378 42 42.889S40.4 42 38.443 42h-3.556zm-20.077 5.62c-3.053 4.304-5.565 8.212-5.582 8.683-.018.471.68.584 1.55.25S17.89 59 22.444 59h8.28l1.138-5.667c.626-3.117 1.138-5.97 1.138-6.341s-1.847-1.229-4.104-1.905-4.695-1.457-5.418-1.734l-1.314-.504zM50 44.716c-2.475.857-4.644 1.677-4.819 1.824-.176.146.214 2.981.867 6.299l1.187 6.033 9.885.314c5.437.173 9.771.043 9.632-.288-.138-.332-2.502-4.038-5.252-8.237-2.75-4.2-5.45-7.605-6-7.569s-3.025.767-5.5 1.624M20.191 51l-3.108 5 4.708-.015c2.59-.009 5.265-.369 5.944-.8s1.511-2.165 1.849-3.853l.613-3.068-3.248-1.132C25.163 46.509 23.611 46 23.5 46s-1.6 2.25-3.309 5m30.457-3.804-2.851 1.038.62 3.102c.341 1.706.998 3.479 1.459 3.94s3.143.7 5.959.531l5.121-.307-3.096-4.75c-1.703-2.612-3.381-4.714-3.728-4.671s-1.915.546-3.484 1.117" fill="#fff" fill-rule="evenodd"/></svg>