<svg xmlns="http://www.w3.org/2000/svg" width="128" height="128" viewBox="0 0 128 128"><path d="M62.191 15.993c-5.487 17.012-5.56 16.829 5.377 13.511 8.277-2.511 8.109-1.857 3.823-14.88-4.69-14.249-4.135-14.332-9.2 1.369M79 18.5c0 .908.928 1.5 2.351 1.5 4.183 0 8.775 2.101 8.45 3.866-1.239 6.726-42.208 15.169-46.794 9.643-1.57-1.893 3.526-7.028 7.937-7.997C54.303 24.775 55.973 22 53.058 22 39.021 22 26.931 33.779 36.28 38.347c18.022 8.804 71.152-5.719 63.08-17.243C96.68 17.277 79 15.016 79 18.5m-7.003 26.421L65.5 47.674l-.305 5.242-.305 5.241-4.195-.632c-2.307-.348-5.386-.859-6.843-1.136-2.456-.467-2.794-.083-4.671 5.304L47.158 67.5l-.079-7.224L47 53.052l7.75-4.276L62.5 44.5l-5.264-.303c-4.487-.258-6.074.185-10.743 3L41.014 50.5l.243 12.89.243 12.889 11.919 6.283 11.919 6.283 12.861-6.444 12.86-6.445-.279-12.599-.28-12.598-6.003-4.295-6.003-4.296zM82.73 60.412c-1.541 3.256-2.121 3.671-4.5 3.217-1.501-.287-4.642-.811-6.98-1.163L67 61.824V78.23l2.75-1.804c1.513-.993 5.382-3.374 8.599-5.291 6.656-3.968 6.892-4.339 6.464-10.184l-.313-4.277zm-64.989 2.017C-7.459 71.421 40.411 99.33 85 101.641c34.217 1.774 43.005-13.009 15.876-26.704-8.27-4.174-11.838-2.299-4.069 2.138 14.769 8.434 10.52 15.458-9.307 15.384-36.373-.134-85.644-24.694-56.471-28.149C34.266 63.927 36 63.247 36 62.361c0-1.829-13.08-1.78-18.259.068m42.65 42.991c.334 1.331 1.554 6.534 2.712 11.563 1.158 5.028 2.321 8.926 2.585 8.662.455-.455 5.25-18.404 5.292-19.812.016-.542-8.585-2.833-10.638-2.833-.307 0-.286 1.089.049 2.42" fill="#fff" fill-rule="evenodd"/></svg>